<mxfile host="app.diagrams.net" modified="2022-08-19T03:00:52.731Z" agent="5.0 (Windows NT 10.0; Win64; x64) AppleWebKit/537.36 (KHTML, like Gecko) Chrome/104.0.0.0 Safari/537.36" etag="jbnX7PiKGXXeakw0FPel" version="20.2.4" type="github">
  <diagram id="C5RBs43oDa-KdzZeNtuy" name="Page-1">
    <mxGraphModel dx="1524" dy="843" grid="1" gridSize="10" guides="1" tooltips="1" connect="1" arrows="1" fold="1" page="1" pageScale="1" pageWidth="1169" pageHeight="1654" math="0" shadow="0">
      <root>
        <mxCell id="WIyWlLk6GJQsqaUBKTNV-0" />
        <mxCell id="WIyWlLk6GJQsqaUBKTNV-1" parent="WIyWlLk6GJQsqaUBKTNV-0" />
        <mxCell id="djrvqwV3GkMXhkwhTUTi-0" value="NPC" style="swimlane;fontStyle=1;align=center;verticalAlign=top;childLayout=stackLayout;horizontal=1;startSize=26;horizontalStack=0;resizeParent=1;resizeParentMax=0;resizeLast=0;collapsible=1;marginBottom=0;" vertex="1" parent="WIyWlLk6GJQsqaUBKTNV-1">
          <mxGeometry x="335" y="70" width="280" height="170" as="geometry" />
        </mxCell>
        <mxCell id="djrvqwV3GkMXhkwhTUTi-1" value="- MAX_NAME_LENGTH : int&#xa;- name : String&#xa;- npcType : NPC_Type&#xa;- cost : int&#xa;- helper : boolean&#xa;- npcModifier : NPC_Modifier " style="text;strokeColor=none;fillColor=none;align=left;verticalAlign=top;spacingLeft=4;spacingRight=4;overflow=hidden;rotatable=0;points=[[0,0.5],[1,0.5]];portConstraint=eastwest;" vertex="1" parent="djrvqwV3GkMXhkwhTUTi-0">
          <mxGeometry y="26" width="280" height="94" as="geometry" />
        </mxCell>
        <mxCell id="djrvqwV3GkMXhkwhTUTi-2" value="" style="line;strokeWidth=1;fillColor=none;align=left;verticalAlign=middle;spacingTop=-1;spacingLeft=3;spacingRight=3;rotatable=0;labelPosition=right;points=[];portConstraint=eastwest;" vertex="1" parent="djrvqwV3GkMXhkwhTUTi-0">
          <mxGeometry y="120" width="280" height="8" as="geometry" />
        </mxCell>
        <mxCell id="djrvqwV3GkMXhkwhTUTi-3" value="+ NPC(builder : Builder)&#xa;+ toString() : String" style="text;strokeColor=none;fillColor=none;align=left;verticalAlign=top;spacingLeft=4;spacingRight=4;overflow=hidden;rotatable=0;points=[[0,0.5],[1,0.5]];portConstraint=eastwest;" vertex="1" parent="djrvqwV3GkMXhkwhTUTi-0">
          <mxGeometry y="128" width="280" height="42" as="geometry" />
        </mxCell>
        <mxCell id="djrvqwV3GkMXhkwhTUTi-4" value="Builder" style="swimlane;fontStyle=1;align=center;verticalAlign=top;childLayout=stackLayout;horizontal=1;startSize=26;horizontalStack=0;resizeParent=1;resizeParentMax=0;resizeLast=0;collapsible=1;marginBottom=0;" vertex="1" parent="WIyWlLk6GJQsqaUBKTNV-1">
          <mxGeometry x="730" y="70" width="310" height="220" as="geometry" />
        </mxCell>
        <mxCell id="djrvqwV3GkMXhkwhTUTi-5" value="- MAX_NAME_LENGTH : int&#xa;- name : String&#xa;- npcType : NPC_Type&#xa;- cost : int&#xa;- helper : boolean&#xa;- npcModifier : NPC_Modifier " style="text;strokeColor=none;fillColor=none;align=left;verticalAlign=top;spacingLeft=4;spacingRight=4;overflow=hidden;rotatable=0;points=[[0,0.5],[1,0.5]];portConstraint=eastwest;" vertex="1" parent="djrvqwV3GkMXhkwhTUTi-4">
          <mxGeometry y="26" width="310" height="94" as="geometry" />
        </mxCell>
        <mxCell id="djrvqwV3GkMXhkwhTUTi-6" value="" style="line;strokeWidth=1;fillColor=none;align=left;verticalAlign=middle;spacingTop=-1;spacingLeft=3;spacingRight=3;rotatable=0;labelPosition=right;points=[];portConstraint=eastwest;" vertex="1" parent="djrvqwV3GkMXhkwhTUTi-4">
          <mxGeometry y="120" width="310" height="8" as="geometry" />
        </mxCell>
        <mxCell id="djrvqwV3GkMXhkwhTUTi-7" value="+ Builder(name : String, npcType : NPC_Type)&#xa;+ toString() : String&#xa;+ setCost(cost : int) : Builder&#xa;+ setHelper(helper : boolean) : Builder&#xa;+ setNpcModifier(npcModifier : NPC_Modifier) : Builder&#xa;+ build() : NPC" style="text;strokeColor=none;fillColor=none;align=left;verticalAlign=top;spacingLeft=4;spacingRight=4;overflow=hidden;rotatable=0;points=[[0,0.5],[1,0.5]];portConstraint=eastwest;" vertex="1" parent="djrvqwV3GkMXhkwhTUTi-4">
          <mxGeometry y="128" width="310" height="92" as="geometry" />
        </mxCell>
        <mxCell id="djrvqwV3GkMXhkwhTUTi-8" value="" style="endArrow=open;startArrow=circlePlus;endFill=0;startFill=0;endSize=8;html=1;rounded=0;exitX=1;exitY=0.5;exitDx=0;exitDy=0;entryX=0;entryY=0.5;entryDx=0;entryDy=0;" edge="1" parent="WIyWlLk6GJQsqaUBKTNV-1" source="djrvqwV3GkMXhkwhTUTi-1" target="djrvqwV3GkMXhkwhTUTi-5">
          <mxGeometry width="160" relative="1" as="geometry">
            <mxPoint x="480" y="430" as="sourcePoint" />
            <mxPoint x="640" y="430" as="targetPoint" />
          </mxGeometry>
        </mxCell>
        <mxCell id="djrvqwV3GkMXhkwhTUTi-9" value="&lt;b&gt;Clinet&lt;/b&gt;" style="html=1;" vertex="1" parent="WIyWlLk6GJQsqaUBKTNV-1">
          <mxGeometry x="375" y="400" width="200" height="80" as="geometry" />
        </mxCell>
        <mxCell id="djrvqwV3GkMXhkwhTUTi-10" value="" style="endArrow=open;endFill=1;endSize=12;html=1;rounded=0;exitX=0.5;exitY=0;exitDx=0;exitDy=0;entryX=0.499;entryY=0.999;entryDx=0;entryDy=0;entryPerimeter=0;" edge="1" parent="WIyWlLk6GJQsqaUBKTNV-1" source="djrvqwV3GkMXhkwhTUTi-9" target="djrvqwV3GkMXhkwhTUTi-3">
          <mxGeometry width="160" relative="1" as="geometry">
            <mxPoint x="280" y="330" as="sourcePoint" />
            <mxPoint x="480" y="250" as="targetPoint" />
          </mxGeometry>
        </mxCell>
        <mxCell id="djrvqwV3GkMXhkwhTUTi-11" value="return" style="html=1;verticalAlign=bottom;endArrow=open;dashed=1;endSize=8;rounded=0;exitX=0.484;exitY=1.011;exitDx=0;exitDy=0;exitPerimeter=0;fontSize=12;fontStyle=1" edge="1" parent="WIyWlLk6GJQsqaUBKTNV-1" source="djrvqwV3GkMXhkwhTUTi-7" target="djrvqwV3GkMXhkwhTUTi-12">
          <mxGeometry x="0.0088" relative="1" as="geometry">
            <mxPoint x="770" y="370" as="sourcePoint" />
            <mxPoint x="880" y="480" as="targetPoint" />
            <Array as="points" />
            <mxPoint as="offset" />
          </mxGeometry>
        </mxCell>
        <mxCell id="djrvqwV3GkMXhkwhTUTi-12" value="&lt;b&gt;NPC&lt;/b&gt;" style="html=1;fontSize=12;" vertex="1" parent="WIyWlLk6GJQsqaUBKTNV-1">
          <mxGeometry x="826" y="400" width="110" height="50" as="geometry" />
        </mxCell>
      </root>
    </mxGraphModel>
  </diagram>
</mxfile>
